<?xml version="1.0" standalone="no"?>
<!DOCTYPE svg PUBLIC "-//W3C//DTD SVG 20010904//EN"
 "http://www.w3.org/TR/2001/REC-SVG-20010904/DTD/svg10.dtd">
<svg version="1.0" xmlns="http://www.w3.org/2000/svg"
 width="564.000000pt" height="564.000000pt" viewBox="0 0 564.000000 564.000000"
 preserveAspectRatio="xMidYMid meet">
<metadata>
Created by potrace 1.11, written by Peter Selinger 2001-2013
</metadata>
<g transform="translate(0.000000,564.000000) scale(0.100000,-0.100000)"
fill="#000000" stroke="none">
<path d="M1302 4576 c-149 -37 -242 -125 -376 -355 -37 -64 -37 -64 -9 -46 15
10 32 22 38 27 28 24 135 98 162 112 180 93 402 56 760 -126 519 -265 490
-251 652 -299 143 -42 333 -45 441 -8 86 30 184 111 244 203 61 92 117 188
113 192 -2 2 -24 -11 -48 -29 -45 -33 -69 -50 -143 -100 -83 -55 -228 -82
-336 -63 -115 22 -251 73 -425 162 -412 210 -469 237 -601 283 -154 54 -361
74 -472 47z"/>
<path d="M4715 4548 c-353 -39 -635 -232 -730 -498 -32 -89 -46 -234 -31 -310
28 -135 56 -205 120 -294 97 -136 248 -236 526 -351 209 -86 334 -184 395
-309 59 -119 45 -191 -60 -304 -67 -73 -141 -117 -235 -141 l-75 -19 45 -3
c195 -10 284 0 422 49 123 43 247 144 329 265 34 51 35 57 32 127 -5 139 -62
293 -148 403 -75 95 -154 149 -365 252 -364 178 -409 206 -485 303 -59 74 -88
150 -87 224 4 185 71 306 202 367 67 31 193 38 279 15 142 -38 278 -143 331
-257 55 -116 45 -229 -30 -356 -39 -67 -16 -53 89 54 117 121 144 188 136 340
-12 224 -134 367 -362 426 -87 22 -194 28 -298 17z"/>
<path d="M970 4107 c-10 -10 -149 -20 -220 -17 -120 6 -390 5 -450 -2 -113
-13 -161 -21 -164 -27 -2 -3 17 -6 42 -6 52 -1 163 -11 202 -20 14 -2 50 -10
80 -16 98 -19 292 -89 415 -149 98 -47 286 -157 330 -192 6 -4 44 -33 85 -65
144 -108 302 -256 405 -378 28 -33 58 -68 67 -79 45 -50 278 -387 478 -691 94
-143 231 -337 250 -355 3 -3 27 -34 55 -70 127 -167 371 -427 505 -540 29 -25
58 -50 64 -55 35 -33 181 -135 269 -189 370 -224 729 -279 1097 -169 197 59
366 154 460 260 86 96 86 98 -1 36 -95 -68 -317 -157 -443 -178 -17 -3 -38 -8
-46 -10 -38 -10 -123 -17 -210 -16 -323 0 -658 139 -995 412 -126 102 -295
268 -289 284 9 21 67 44 101 40 53 -7 141 -59 243 -143 71 -59 191 -130 238
-142 73 -17 120 -2 152 50 14 22 27 40 30 40 3 0 19 -9 35 -20 55 -37 239
-127 315 -155 237 -84 448 -93 665 -26 284 88 556 304 661 526 36 76 74 217
49 180 -8 -11 -18 -25 -24 -31 -5 -6 -17 -26 -26 -44 -27 -52 -185 -201 -262
-246 -81 -49 -184 -88 -274 -105 -64 -11 -252 -16 -299 -6 -14 3 -54 10 -90
17 -265 48 -608 223 -899 459 -175 141 -476 458 -681 716 -39 50 -76 97 -83
105 -7 8 -64 83 -127 165 -185 242 -228 294 -355 420 -250 250 -500 371 -875
420 -56 8 -474 18 -480 12z m172 -105 c335 -104 700 -336 997 -633 116 -117
332 -370 505 -594 72 -92 248 -304 320 -385 72 -80 359 -364 425 -420 81 -70
205 -165 255 -197 30 -19 36 -27 25 -34 -26 -16 -90 -9 -142 16 -41 19 -195
130 -285 206 -7 6 -38 22 -68 36 -99 45 -176 27 -213 -50 -12 -24 -21 -50 -21
-58 0 -16 -48 33 -167 175 -122 145 -263 336 -392 531 -137 206 -261 390 -315
467 -23 32 -59 83 -81 115 -198 282 -440 527 -673 680 -96 63 -229 131 -322
163 -36 13 -69 27 -74 31 -11 10 145 -24 226 -49z"/>
<path d="M2313 3903 c128 -120 264 -278 547 -633 343 -431 576 -676 853 -897
253 -203 538 -351 752 -392 107 -20 119 -21 215 -22 150 0 301 39 444 114 182
97 281 255 331 527 l6 35 -27 -45 c-78 -129 -173 -218 -286 -269 -104 -47
-169 -59 -308 -61 -412 -6 -946 323 -1465 904 -38 43 -79 88 -90 100 -11 12
-36 42 -55 65 -19 24 -40 48 -45 54 -37 43 -108 133 -215 272 -67 88 -124 161
-125 163 -2 2 -47 5 -101 7 -138 5 -276 40 -422 106 -35 16 -65 29 -67 29 -2
0 24 -26 58 -57z"/>
</g>
</svg>
